<svg width="450" height="404" viewBox="0 0 450 404" fill="none" xmlns="http://www.w3.org/2000/svg">
<g clip-path="url(#clip0_1_697)">
<path d="M164.265 172.203H78.3972V0H164.281C187.058 0 208.903 9.07137 225.009 25.2185C241.116 41.3657 250.164 63.2659 250.164 86.1014C250.164 108.937 241.116 130.837 225.009 146.984C208.903 163.131 187.058 172.203 164.281 172.203" fill="#1EBDC1"/>
<path d="M164.265 374.133H78.3972V201.884H164.281C187.058 201.884 208.903 210.956 225.009 227.103C241.116 243.25 250.164 265.15 250.164 287.986C250.164 310.821 241.116 332.722 225.009 348.869C208.903 365.016 187.058 374.087 164.281 374.087" fill="#1EBDC1"/>
<path d="M278.233 92.3583V0H450V92.3583C450.152 103.761 448.043 115.081 443.796 125.66C439.549 136.239 433.247 145.867 425.258 153.984C417.269 162.102 407.75 168.548 397.256 172.947C386.761 177.346 375.499 179.612 364.124 179.612C352.749 179.612 341.488 177.346 330.993 172.947C320.498 168.548 310.98 162.102 302.991 153.984C295.001 145.867 288.7 136.239 284.453 125.66C280.205 115.081 278.096 103.761 278.249 92.3583" fill="#1EBDC1"/>
<path d="M278.233 288.032V201.884H450V288.032C450.152 299.435 448.043 310.755 443.796 321.334C439.549 331.913 433.247 341.541 425.258 349.658C417.269 357.776 407.75 364.221 397.256 368.621C386.761 373.02 375.499 375.285 364.124 375.285C352.749 375.285 341.488 373.02 330.993 368.621C320.498 364.221 310.98 357.776 302.991 349.658C295.001 341.541 288.7 331.913 284.453 321.334C280.205 310.755 278.096 299.435 278.249 288.032" fill="#C5E505"/>
<path d="M236.621 249.658C236.621 249.658 277.373 286.753 282.03 299.112C282.03 299.112 338.615 337.147 347.761 350.292L364.67 333.664C364.67 333.664 332.189 288.186 305.765 284.087C305.765 284.087 275.989 231.119 272.607 223.799C272.607 223.799 238.789 220.717 236.852 222.027L236.621 249.658Z" fill="#E9B798"/>
<path d="M177.746 196.891C177.746 196.891 234.1 246.576 236.621 249.659C236.621 249.659 241.033 241.368 239.696 226.434C239.696 226.434 264.291 226.866 272.669 223.845C272.669 223.845 252.685 176.564 231.01 170.6L177.746 196.891Z" fill="#F8F9EB"/>
<path d="M393.677 366.782L378.52 365.611L372.587 387.048V396.295C372.587 396.295 358.967 400.379 359.197 404L393.446 402.721L393.677 366.782Z" fill="#254F5A"/>
<path d="M152.69 204.581C152.69 204.581 118.042 216.587 105.698 232.706C105.698 232.706 98.1042 242.631 105.56 248.58C105.56 248.58 130.57 279.063 132.83 285.012L165.372 285.289C165.372 285.289 154.074 260.477 141.668 250.475C144.409 247.202 148.225 245.016 152.429 244.311C159.731 242.847 193.241 235.511 193.241 235.511L152.69 204.581Z" fill="#E9B798"/>
<path d="M65.9768 56.2964C65.9768 56.2964 58.4445 77.579 71.1571 104.071C71.1571 104.071 84.1465 97.3205 93.7232 104.255C93.7232 104.255 103.039 112.732 102.946 118.326C102.946 118.326 135.673 116.06 131.339 89.3222C131.339 89.3222 116.612 91.4952 112.416 76.7006C112.416 76.7006 92.1245 48.5909 80.9491 49.3768C69.7736 50.1628 65.9306 56.2347 65.9306 56.2347" fill="#E9B798"/>
<path d="M103.377 43.1509C103.377 43.1509 78.3973 49.7776 70.1272 46.2331C61.8571 42.6886 59.7818 39.2827 56.4615 42.8119C53.1411 46.341 56.2309 68.7486 79.7962 55.9729C79.7962 55.9729 84.4078 71.276 93.4926 71.8616C93.4926 71.8616 96.3211 67.8085 99.3494 69.1031C102.378 70.3976 103.3 75.098 101.84 77.3788C100.769 78.5733 99.3576 79.4075 97.7968 79.7675C97.7968 79.7675 107.02 89.6306 116.351 84.1905C116.351 84.1905 118.195 59.8565 103.377 43.2125" fill="#5D4631"/>
<path d="M63.7631 72.6629C63.7631 72.6629 54.0326 83.6664 56.6612 84.5757C59.2898 85.4849 64.5624 82.4489 64.5624 82.4489L63.7631 72.6629Z" fill="#E9B798"/>
<path d="M66.2534 90.9252C67.9088 90.5565 69.6247 90.5565 71.28 90.9252" stroke="#231F20" stroke-width="0.53" stroke-miterlimit="10"/>
<path d="M64.2702 68.2093C64.2702 68.2093 73.0323 64.3257 74.3543 64.3257C75.6763 64.3257 77.8283 67.8086 77.8283 67.8086C77.8283 67.8086 74.4465 66.4371 73.8931 66.1134C73.3397 65.7898 64.2549 70.4439 64.2549 70.4439L64.2702 68.2093Z" fill="#5D4631"/>
<path d="M66.6837 71.1527C66.6837 72.6938 67.3293 74.0654 68.144 74.0808C68.9587 74.0962 69.6812 72.7863 69.6812 71.1835C69.6812 69.5808 69.051 68.2554 68.2363 68.2554C67.4215 68.2554 66.6991 69.55 66.6991 71.1527" fill="#231F20"/>
<path d="M91.3404 152.677C91.3404 152.677 75.123 179.955 34.9559 151.028L35.1097 133.567C35.1097 133.567 26.4552 126.694 26.5475 115.768C26.5475 115.768 20.1681 124.706 22.5507 130.054L4.10432 109.033L0 134.677C0 134.677 25.5175 158.025 32.7885 167.04C40.0594 176.056 94.8914 219.607 111.186 174.252C111.186 174.252 105.529 158.718 91.3097 152.677" fill="#E9B798"/>
<path d="M160.176 74.8514C160.176 74.8514 180.729 69.889 189.952 68.3788C189.952 68.3788 240.003 88.9679 253.162 113.209H258.327C258.327 113.209 263.814 106.598 270.763 106.274C269.913 108.156 268.948 109.983 267.873 111.745L269.84 111.514L278.51 116.754C278.51 116.754 276.512 128.944 263.43 128.204L187.539 96.1032C187.539 96.1032 181.866 104.61 178.192 106.521L160.176 74.8514Z" fill="#E9B798"/>
<path d="M91.3404 152.677C91.3404 152.677 93.9844 123.396 101.839 114.35C101.839 114.35 134.013 114.041 127.588 89.3839C127.588 89.3839 146.449 76.8855 160.207 74.8204C160.207 74.8204 180.068 90.6013 182.819 102.375C182.819 102.375 179.745 106.999 175.671 108.278C175.671 108.278 207.015 139.1 215.193 166.408C215.193 166.408 226.491 167.009 230.98 170.523C230.98 170.523 207.184 196.722 177.777 196.86C177.777 196.86 125.743 161.769 118.979 159.442C118.979 159.442 113.63 168.781 111.293 174.283C111.293 174.283 104.453 158.733 91.4173 152.708" fill="#ABBC06"/>
<path d="M124.836 132.319C124.836 132.966 124.406 149.379 118.949 159.473L124.836 132.319Z" fill="#979E05"/>
<path d="M150.43 88.5981C150.43 88.5981 167.109 96.4577 175.64 108.309L150.43 88.5981Z" fill="#979E05"/>
<path d="M104.33 114.196C104.33 114.196 92.6778 138.422 96.2288 155.651" stroke="#F8F9EB" stroke-width="0.93" stroke-miterlimit="10"/>
<path d="M106.697 114.211C106.697 114.211 95.9368 140.949 99.5492 157.84" stroke="#F8F9EB" stroke-width="0.93" stroke-miterlimit="10"/>
<path d="M109.449 113.456C109.449 113.456 99.9179 139.377 102.746 160.937" stroke="#F8F9EB" stroke-width="0.93" stroke-miterlimit="10"/>
<path d="M152.69 204.581C152.69 204.581 173.166 197.107 177.747 196.876L221.71 235.866C221.71 235.866 169.984 245.189 152.69 204.566" fill="#E3E4D9"/>
<path d="M165.372 285.212C165.372 285.212 172.966 309.623 173.366 314.971C173.366 314.971 155.503 326.39 153.382 322.137C153.382 322.137 141.761 294.967 132.891 284.934L165.372 285.212Z" fill="#F8F9EB"/>
<path d="M178.192 323.277L173.365 314.97L153.382 322.137L143.405 345.885C143.405 345.885 128.033 346.871 127.603 349.09L149.6 349.275L178.192 323.277Z" fill="#254F5A"/>
<path d="M372.587 387.079C372.587 387.079 382.348 375.89 378.52 365.642C374.693 355.394 364.686 333.618 364.686 333.618L347.776 350.246C347.776 350.246 373.909 380.02 372.602 387.079" fill="#F8F9EB"/>
<path d="M203.91 190.357C203.91 190.357 231.994 215.801 239.895 233.677" stroke="#254F5A" stroke-width="1.13" stroke-miterlimit="10"/>
<path d="M208.352 188.014C208.352 188.014 232.794 212.765 239.634 226.357" stroke="#254F5A" stroke-width="1.13" stroke-miterlimit="10"/>
<path d="M212.426 185.626C212.426 185.626 236.806 212.611 243.923 226.419" stroke="#254F5A" stroke-width="1.13" stroke-miterlimit="10"/>
<path d="M150.384 329.118L171.567 329.303" stroke="#F8F9EB" stroke-width="0.93" stroke-miterlimit="10"/>
<path d="M148.309 334.08L166.125 334.234" stroke="#F8F9EB" stroke-width="0.93" stroke-miterlimit="10"/>
<path d="M145.773 340.106L159.531 340.214" stroke="#F8F9EB" stroke-width="0.93" stroke-miterlimit="10"/>
<path d="M372.587 387.079L393.615 373.471" stroke="#F8F9EB" stroke-width="0.93" stroke-miterlimit="10"/>
<path d="M372.556 391.301L393.569 379.126" stroke="#F8F9EB" stroke-width="0.93" stroke-miterlimit="10"/>
<path d="M372.51 396.248L393.523 384.628" stroke="#F8F9EB" stroke-width="0.93" stroke-miterlimit="10"/>
</g>
<defs>
<clipPath id="clip0_1_697">
<rect width="450" height="404" fill="white"/>
</clipPath>
</defs>
</svg>
